<svg width="66" height="20" viewBox="0 0 66 20" fill="none" xmlns="http://www.w3.org/2000/svg">
<path d="M61.5613 0.285645H57.4123C56.1579 0.285645 55.193 0.666597 54.6141 1.90469L46.7019 19.7142H52.2983C52.2983 19.7142 53.2632 17.3333 53.4562 16.7618C54.0351 16.7618 59.535 16.7618 60.307 16.7618C60.4999 17.4285 60.9824 19.619 60.9824 19.619H65.9999L61.5613 0.285645ZM55 12.7618C55.4825 11.619 57.1228 7.33326 57.1228 7.33326C57.1228 7.4285 57.6052 6.19041 57.7982 5.52374L58.1842 7.23803C58.1842 7.23803 59.2456 11.9047 59.4385 12.8571H55V12.7618Z" fill="white"/>
<path d="M47.0877 13.3333C47.0877 17.3333 43.421 20 37.7282 20C35.3159 20 33.0002 19.5238 31.7458 18.9524L32.5177 14.5714L33.1931 14.8571C34.93 15.619 36.0878 15.9048 38.2106 15.9048C39.7544 15.9048 41.3948 15.3333 41.3948 14C41.3948 13.1429 40.7193 12.5714 38.5966 11.619C36.5703 10.6667 33.8686 9.14286 33.8686 6.38095C33.8686 2.57143 37.6317 0 42.9386 0C44.9649 0 46.7017 0.380952 47.7631 0.857143L46.9912 5.04762L46.6052 4.66667C45.6403 4.28571 44.3859 3.90476 42.5526 3.90476C40.5264 4 39.5615 4.85714 39.5615 5.61905C39.5615 6.47619 40.7193 7.14286 42.5526 8C45.6403 9.42857 47.0877 11.0476 47.0877 13.3333Z" fill="white"/>
<path d="M0 0.476411L0.0964898 0.095459H8.39461C9.55249 0.095459 10.4209 0.476411 10.7104 1.71451L12.5437 10.2859C10.7104 5.71451 6.46481 2.00022 0 0.476411Z" fill="white" fill-opacity="0.64"/>
<path d="M24.2191 0.285668L15.8245 19.619H10.1316L5.30713 3.42852C8.78076 5.619 11.6755 9.04757 12.7368 11.4285L13.3158 13.4285L18.5262 0.19043H24.2191V0.285668Z" fill="white"/>
<path d="M26.4388 0.19043H31.7457L28.3686 19.619H23.0616L26.4388 0.19043Z" fill="white"/>
</svg>
